<?xml version="1.0" encoding="UTF-8"?><svg xmlns="http://www.w3.org/2000/svg" xmlns:xlink="http://www.w3.org/1999/xlink" version="1.1" id="Layer_1" x="0px" y="0px" viewBox="0 0 24 24" xml:space="preserve"><path fill="#D7944B" d="M23.817 14.5A25.4 25.4 0 0 0 9.5.182L9.035 0 0 24l24-9.035-.183-.465z"/><path fill="#D7944B" d="M23.817 14.5A25.4 25.4 0 0 0 9.5.182L9.035 0 0 24l24-9.035-.183-.465z"/><path opacity="0.2" fill="#FFF" d="M9.035.25L9.5.432c6.523 2.555 11.832 7.795 14.386 14.318l.114.215-.183-.465A25.4 25.4 0 0 0 9.5.182L9.035 0 0 24l.11-.042L9.035.25z"/><path fill="#FFE55E" d="M20.998 15.413c-.06-.11-.12-.22-.167-.336-.216-.52-.31-1.122-.408-1.76-.139-.898-.282-1.827-.798-2.598-.521-.778-1.328-1.266-2.11-1.738-.548-.332-1.066-.646-1.46-1.038-.392-.393-.705-.912-1.037-1.46-.473-.782-.96-1.589-1.738-2.11-.771-.516-1.7-.659-2.599-.798-.638-.098-1.24-.191-1.761-.407-.114-.047-.224-.107-.334-.166l-.564-.313L0 23.999l21.304-8.02-.306-.566z"/><path fill="#FFCE34" d="M17.407 17.447l3.897-1.468-.306-.566c-.06-.11-.12-.22-.167-.336-.216-.52-.31-1.122-.408-1.76-.139-.898-.282-1.827-.798-2.598-.521-.778-1.328-1.266-2.11-1.738-.548-.332-1.066-.646-1.46-1.038-.392-.393-.705-.912-1.037-1.46-.473-.782-.96-1.589-1.738-2.11-.771-.516-1.7-.659-2.599-.798-.638-.098-1.24-.191-1.761-.407-.114-.047-.224-.107-.334-.166l-.564-.313L0 23.999l12.054-4.537c.63 1.88.303 3.371.303 3.752 0 .434.32.786.714.786.395 0 .715-.352.715-.786 0-.737-.628-1.567.47-4.581l.659-.248C15.312 20.212 15 21.597 15 22a1 1 0 0 0 2 0c0-.88-.773-1.377.407-4.553z"/><path opacity="0.2" fill="#FFF" d="M8.022 2.94l.564.312c.11.06.22.12.334.166.521.217 1.123.31 1.761.408.899.139 1.828.282 2.599.798.777.52 1.265 1.328 1.738 2.11.332.548.645 1.066 1.038 1.46.393.392.91.705 1.46 1.037.78.472 1.588.96 2.109 1.738.516.771.66 1.7.798 2.599.098.637.192 1.24.408 1.76.047.115.107.225.167.336l.194.358.112-.042-.306-.566c-.06-.111-.12-.221-.167-.336-.216-.52-.31-1.123-.408-1.76-.139-.899-.282-1.828-.798-2.599-.521-.777-1.328-1.266-2.11-1.738-.548-.332-1.066-.645-1.46-1.038-.392-.393-.705-.911-1.037-1.46-.473-.781-.96-1.588-1.738-2.11-.771-.515-1.7-.658-2.599-.797-.638-.099-1.24-.191-1.761-.408-.114-.046-.224-.106-.334-.166l-.564-.313L0 24 8.022 2.94z"/><path fill="#E6B277" d="M14.76 10.5c-.33 0-1.086 0-1.086.76 0 .32.217.217.217.543 0 .384-.958-.108-1.304-.108-.347 0-1.087.196-1.087 1.303v.003c0 1.108.74 1.304 1.087 1.304.346 0 1.304-.492 1.304-.109 0 .326-.217.224-.217.543 0 .76.755.76 1.087.76.96 0 1.739-1.119 1.739-2.5 0-1.38-.779-2.5-1.74-2.5z"/><path opacity="0.2" fill="#FFF" d="M14.76 10.75c.932 0 1.694.928 1.74 2.25 0-1.381-.779-2.5-1.74-2.5-.33 0-1.086 0-1.086.76 0 .046.012.07.02.1.098-.602.76-.61 1.067-.61z"/><path opacity="0.2" fill="#FFF" d="M12.587 11.945c.346 0 1.304.492 1.304.108a.314.314 0 0 0-.034-.154c-.152.188-.957-.204-1.27-.204-.347 0-1.087.196-1.087 1.303v.003c.057-.99.755-1.056 1.087-1.056z"/><path opacity="0.05" d="M14.76 15.251c.932 0 1.694-.928 1.74-2.25 0 1.381-.779 2.5-1.74 2.5-.33 0-1.086 0-1.086-.76 0-.046.012-.07.02-.1.098.602.76.61 1.067.61z"/><path opacity="0.05" d="M12.587 14.057c.346 0 1.304-.492 1.304-.11a.314.314 0 0 1-.034.155c-.152-.188-.957.205-1.27.205-.347 0-1.087-.197-1.087-1.304V13c.057.99.755 1.057 1.087 1.057z"/><circle fill="#67B345" cx="7" cy="13.9997559" r="1"/><circle fill="#67B345" cx="13" cy="7.9997559" r="1"/><linearGradient id="SVGID_1_" gradientUnits="userSpaceOnUse" x1="-35.6320724" y1="-424.6318359" x2="-34.5130844" y2="-423.5128479" gradientTransform="matrix(-1 0 0 -1 -22 -416)"><stop offset="0" stop-color="#3E2723" stop-opacity="0.2"/><stop offset="1" stop-color="#3E2723" stop-opacity="0.02"/></linearGradient><circle fill="url(#SVGID_1_)" cx="13" cy="7.9997559" r="1"/><linearGradient id="SVGID_2_" gradientUnits="userSpaceOnUse" x1="-29.6320724" y1="-430.6318359" x2="-28.5130825" y2="-429.5128479" gradientTransform="matrix(-1 0 0 -1 -22 -416)"><stop offset="0" stop-color="#3E2723" stop-opacity="0.2"/><stop offset="1" stop-color="#3E2723" stop-opacity="0.02"/></linearGradient><circle fill="url(#SVGID_2_)" cx="7" cy="13.9997559" r="1"/><path fill="#C6401D" d="M8 11c1.654 0 3-1.346 3-3S9.654 5 8 5a2.96 2.96 0 0 0-.906.155l-1.652 4.39A2.991 2.991 0 0 0 8 11z"/><path opacity="0.1" d="M8 10.75c-1.05 0-1.96-.555-2.495-1.375l-.063.17A2.991 2.991 0 0 0 8 11a3.003 3.003 0 0 0 2.997-3.125A3.006 3.006 0 0 1 8 10.75z"/><path opacity="0.2" fill="#FFF" d="M7.98 5.25a3.38 3.38 0 0 1 2.546 1.133A3.006 3.006 0 0 0 8 5a2.96 2.96 0 0 0-.906.155l-.093.248a3.48 3.48 0 0 1 .98-.153z"/><path fill="#C6401D" d="M8 17c-1.654 0-3 1.345-3 3 0 .708.257 1.352.67 1.866l5.316-2.002A2.997 2.997 0 0 0 8 17z"/><path opacity="0.2" fill="#FFF" d="M8 17.25c1.231 0 2.3.698 2.8 1.703A2.998 2.998 0 0 0 8 17a3.012 3.012 0 0 0-2.828 1.998C5.665 17.969 6.751 17.25 8 17.25z"/><path opacity="0.05" d="M24 14.965l-.183-.465a25.29 25.29 0 0 0-5.67-8.647L0 24l12.054-4.538c.63 1.88.303 3.371.303 3.752 0 .434.32.786.714.786.395 0 .715-.352.715-.786 0-.737-.628-1.567.47-4.58l.659-.249C15.312 20.213 15 21.597 15 22a1 1 0 0 0 2 0c0-.88-.773-1.377.407-4.553L24 14.965z"/><linearGradient id="SVGID_3_" gradientUnits="userSpaceOnUse" x1="3.6486132" y1="11.5501871" x2="21.6730995" y2="19.955143"><stop offset="0" stop-color="#FFF" stop-opacity="0.2"/><stop offset="1" stop-color="#FFF" stop-opacity="0"/></linearGradient><path fill="url(#SVGID_3_)" d="M17.407 17.447L24 14.965l-.183-.465c-1.277-3.262-3.225-6.203-5.67-8.647S12.761 1.459 9.5.183L9.035 0 0 23.999H0l12.054-4.537c.63 1.88.303 3.371.303 3.752 0 .434.32.786.714.786.395 0 .715-.352.715-.786 0-.737-.628-1.567.47-4.58l.659-.249C15.312 20.213 15 21.597 15 22a1 1 0 0 0 2 0c0-.88-.773-1.377.407-4.553z"/><metadata><rdf:RDF xmlns:rdf="http://www.w3.org/1999/02/22-rdf-syntax-ns#" xmlns:rdfs="http://www.w3.org/2000/01/rdf-schema#" xmlns:dc="http://purl.org/dc/elements/1.1/"><rdf:Description about="https://iconscout.com/legal#licenses" dc:title="food,eat,pizza,italian,fast" dc:description="food,eat,pizza,italian,fast" dc:publisher="Iconscout" dc:date="2017-10-16" dc:format="image/svg+xml" dc:language="en"><dc:creator><rdf:Bag><rdf:li>Those Icons</rdf:li></rdf:Bag></dc:creator></rdf:Description></rdf:RDF></metadata></svg>